<svg width="24" height="24" viewBox="0 0 24 24" fill="none" xmlns="http://www.w3.org/2000/svg">
<circle cx="12" cy="12" r="12" fill="#007DAD"/>
<path d="M15.56 16.782V18H8.518V17.048L12.508 13.198C12.9933 12.7313 13.32 12.33 13.488 11.994C13.656 11.6487 13.74 11.3033 13.74 10.958C13.74 10.4447 13.558 10.048 13.194 9.768C12.8393 9.47867 12.326 9.334 11.654 9.334C10.5713 9.334 9.736 9.68867 9.148 10.398L8.196 9.572C8.57867 9.10533 9.078 8.74133 9.694 8.48C10.3193 8.21867 11.0147 8.088 11.78 8.088C12.8067 8.088 13.6233 8.33533 14.23 8.83C14.8367 9.31533 15.14 9.978 15.14 10.818C15.14 11.3407 15.028 11.8353 14.804 12.302C14.58 12.7687 14.1553 13.3007 13.53 13.898L10.534 16.782H15.56Z" fill="white"/>
</svg>
