<svg width="24" height="24" viewBox="0 0 24 24" fill="none" xmlns="http://www.w3.org/2000/svg">
<circle cx="12" cy="12" r="12" fill="#007DAD"/>
<path d="M11.472 12.106C12.872 12.106 13.8987 12.372 14.552 12.904C15.2147 13.4267 15.546 14.1453 15.546 15.06C15.546 15.6387 15.406 16.1613 15.126 16.628C14.8553 17.0853 14.44 17.4493 13.88 17.72C13.3293 17.9813 12.648 18.112 11.836 18.112C11.1453 18.112 10.478 18.0093 9.834 17.804C9.19 17.5893 8.658 17.2953 8.238 16.922L8.882 15.816C9.218 16.1333 9.64733 16.39 10.17 16.586C10.6927 16.7727 11.2433 16.866 11.822 16.866C12.5593 16.866 13.1287 16.712 13.53 16.404C13.9407 16.0867 14.146 15.6573 14.146 15.116C14.146 14.528 13.922 14.0847 13.474 13.786C13.026 13.478 12.2607 13.324 11.178 13.324H8.952L9.47 8.2H15V9.418H10.646L10.38 12.106H11.472Z" fill="white"/>
</svg>
