<svg width="184" height="144" viewBox="0 0 184 144" fill="none" xmlns="http://www.w3.org/2000/svg">
<path d="M73.0001 25.947L156 84.4446L156 138.445L12.5031 26.943L73.0001 25.947Z" fill="#CD0C2F"/>
<path d="M60.2981 48.9227L55.5163 45.3786L52.8592 46.8945L51.5352 45.9132L62.2791 39.9353L63.5517 40.8785L60.9703 52.9061L59.6206 51.9058L60.2981 48.9227ZM60.6103 47.5609L61.9372 41.7133L56.7283 44.6837L60.6103 47.5609ZM68.594 52.4227L66.7173 51.0317L63.7829 54.9908L62.5232 54.0572L69.1923 45.0592L70.452 45.9928L67.5557 49.9005L69.4581 51.3106L75.1824 49.4989L76.5578 50.5183L70.1145 52.4941L70.043 59.6306L68.5776 58.5445L68.594 52.4227ZM81.136 66.1197L78.7923 69.2819L77.5968 68.3959L79.1116 66.352L71.3605 60.6071L78.0296 51.6091L79.3022 52.5523L73.462 60.432L78.4751 64.1476L84.3153 56.2679L85.5879 57.2111L79.7477 65.0908L81.136 66.1197ZM88.6871 59.5082L89.9596 60.4514L84.8149 67.3927L95.2813 64.3956L96.4639 65.2721L89.7948 74.2701L88.5351 73.3365L93.6703 66.408L83.2006 69.3827L82.018 68.5062L88.6871 59.5082ZM105.863 72.2388L99.1944 81.2368L97.9347 80.3032L99.8783 77.6809L97.3974 75.8421C97.2431 75.7278 97.1306 75.6378 97.0598 75.572L93.3072 76.8734L91.9446 75.8635L96.0521 74.4865C95.5681 73.7959 95.339 73.0751 95.3646 72.324C95.3966 71.5643 95.6793 70.8246 96.2128 70.1048C96.9686 69.085 97.8818 68.5337 98.9523 68.4508C100.038 68.3657 101.137 68.736 102.251 69.5617L105.863 72.2388ZM97.5206 71.0542C97.0252 71.7226 96.8369 72.3797 96.9558 73.0254C97.0896 73.6689 97.5378 74.2733 98.3005 74.8386L100.679 76.6011L103.775 72.4235L101.474 70.7181C100.703 70.1465 99.978 69.8882 99.2999 69.9432C98.6218 69.9983 98.0287 70.3686 97.5206 71.0542ZM111.249 83.8778L114.707 86.4406L113.916 87.5075L110.458 84.9447L111.249 83.8778ZM120.105 88.6495C120.924 89.3894 121.394 90.1622 121.513 90.968C121.64 91.7651 121.439 92.5193 120.912 93.2306C120.531 93.7448 120.056 94.1166 119.488 94.3459C118.926 94.5667 118.296 94.6108 117.597 94.4782C116.914 94.3435 116.204 94.0029 115.467 93.4567C114.824 92.9804 114.277 92.4288 113.825 91.802C113.38 91.1667 113.096 90.5379 112.973 89.9156L114.317 89.3384C114.409 89.8584 114.629 90.3862 114.976 90.9219C115.328 91.4489 115.775 91.9125 116.315 92.3127C116.983 92.8081 117.606 93.051 118.184 93.0413C118.771 93.038 119.249 92.7878 119.617 92.2907C119.985 91.7937 120.087 91.2715 119.922 90.7242C119.756 90.1769 119.301 89.6269 118.556 89.0743L117.836 88.5408L118.503 87.641L122.823 86.5413L118.491 83.3306L119.32 82.2123L125.258 86.6138L124.611 87.4879L120.105 88.6495ZM123.748 99.5948C123.037 99.0676 122.536 98.4176 122.246 97.6449C121.971 96.8699 121.932 96.0178 122.129 95.0887C122.326 94.1596 122.778 93.2194 123.483 92.2682C124.188 91.3169 124.956 90.6118 125.788 90.1527C126.619 89.6935 127.442 89.4873 128.258 89.5338C129.088 89.5782 129.859 89.864 130.57 90.3911C131.272 90.9119 131.761 91.5598 132.037 92.3348C132.327 93.1076 132.374 93.9585 132.176 94.8877C131.979 95.8168 131.528 96.757 130.822 97.7082C130.117 98.6594 129.349 99.3646 128.518 99.8237C127.686 100.283 126.855 100.49 126.025 100.446C125.21 100.399 124.451 100.116 123.748 99.5948ZM124.596 98.4507C125.316 98.9843 126.109 99.1142 126.976 98.8404C127.851 98.5731 128.705 97.8781 129.537 96.7555C130.369 95.6329 130.786 94.614 130.787 93.6987C130.797 92.7899 130.442 92.0687 129.722 91.5352C128.993 90.9953 128.192 90.859 127.316 91.1264C126.45 91.4001 125.6 92.0983 124.768 93.2209C123.936 94.3435 123.515 95.3592 123.505 96.2681C123.504 97.1833 123.868 97.9109 124.596 98.4507ZM133.763 100.405C133.137 99.9414 132.8 99.3396 132.751 98.5996C132.702 97.8596 132.947 97.1254 133.487 96.397C134.027 95.6686 134.658 95.2202 135.38 95.0518C136.102 94.8835 136.776 95.0311 137.402 95.4948C138.028 95.9584 138.361 96.5571 138.401 97.2907C138.456 98.0222 138.211 98.7564 137.665 99.4933C137.118 100.23 136.484 100.683 135.762 100.851C135.055 101.018 134.388 100.869 133.763 100.405ZM142.769 99.5924L143.759 100.326L130.946 104.77L129.956 104.036L142.769 99.5924ZM134.306 99.6724C134.7 99.9646 135.119 100.043 135.565 99.9085C136.016 99.7651 136.442 99.4235 136.842 98.8836C137.242 98.3437 137.442 97.8412 137.441 97.3762C137.447 96.9025 137.253 96.5196 136.859 96.2275C136.473 95.9416 136.05 95.8672 135.59 96.0043C135.139 96.1476 134.716 96.485 134.323 97.0163C133.929 97.5476 133.729 98.05 133.723 98.5237C133.726 99.0037 133.92 99.3866 134.306 99.6724ZM136.313 108.868C135.687 108.404 135.347 107.806 135.292 107.075C135.251 106.341 135.504 105.606 136.05 104.869C136.597 104.132 137.223 103.68 137.931 103.514C138.653 103.346 139.327 103.494 139.952 103.957C140.578 104.421 140.915 105.023 140.964 105.763C141.013 106.503 140.768 107.237 140.228 107.965C139.688 108.694 139.057 109.142 138.335 109.31C137.612 109.479 136.939 109.331 136.313 108.868ZM136.856 108.135C137.242 108.421 137.66 108.492 138.112 108.349C138.572 108.212 138.999 107.877 139.392 107.346C139.786 106.815 139.982 106.309 139.979 105.829C139.985 105.355 139.795 104.976 139.409 104.69C139.015 104.398 138.592 104.323 138.141 104.467C137.696 104.602 137.273 104.939 136.873 105.479C136.473 106.019 136.27 106.525 136.264 106.999C136.264 107.464 136.462 107.843 136.856 108.135Z" fill="white"/>
<path d="M150 133.785V143.447L156 138.447L150 133.785Z" fill="#A40F2A"/>
<path d="M12.5 29.9473V26.9473L16.5 29.9473H12.5Z" fill="#A40F2A"/>
</svg>
