<svg width="24" height="24" viewBox="0 0 24 24" fill="none" xmlns="http://www.w3.org/2000/svg">
<circle cx="12" cy="12" r="12" fill="#007DAD"/>
<path d="M12.424 12.316C13.3853 12.4093 14.118 12.708 14.622 13.212C15.126 13.7067 15.378 14.3413 15.378 15.116C15.378 15.676 15.238 16.1847 14.958 16.642C14.678 17.09 14.258 17.4493 13.698 17.72C13.1473 17.9813 12.4707 18.112 11.668 18.112C10.968 18.112 10.296 18.0093 9.652 17.804C9.008 17.5893 8.48067 17.2953 8.07 16.922L8.714 15.816C9.05 16.1333 9.47933 16.39 10.002 16.586C10.5247 16.7727 11.08 16.866 11.668 16.866C12.396 16.866 12.9607 16.712 13.362 16.404C13.7727 16.096 13.978 15.6713 13.978 15.13C13.978 14.5887 13.7773 14.1687 13.376 13.87C12.9747 13.5713 12.368 13.422 11.556 13.422H10.772V12.442L13.236 9.418H8.518V8.2H14.986V9.152L12.424 12.316Z" fill="white"/>
</svg>
