<svg width="36" height="36" viewBox="0 0 36 36" fill="none" xmlns="http://www.w3.org/2000/svg">
<path d="M32.57 27.9919H30.4898V18.0307C30.4898 18.0215 30.4849 18.0139 30.4846 18.0048C30.4827 17.9544 30.4678 17.9074 30.455 17.8584C30.4447 17.8191 30.4397 17.7789 30.423 17.7426C30.4062 17.7061 30.3788 17.676 30.3555 17.6425C30.3266 17.601 30.3005 17.5592 30.2635 17.5251C30.2569 17.519 30.2543 17.5105 30.2474 17.5047L11.5551 1.52142C11.53 1.49991 11.4991 1.49239 11.4721 1.47511C11.4301 1.44811 11.3903 1.42056 11.3428 1.40302C11.2965 1.38591 11.2495 1.3813 11.2013 1.3745C11.1685 1.36972 11.1393 1.3551 11.1052 1.3551H3.42998C3.04765 1.3551 2.73767 1.66475 2.73767 2.04741C2.73767 2.43007 3.04765 2.73972 3.42998 2.73972H10.4129V12.1935H3.49307C3.10537 12.1935 2.80076 12.4981 2.80076 12.8858V15.9527C2.80076 16.3334 3.10537 16.645 3.49307 16.645H8.06925L25.55 32.6788V33.9527C25.55 34.3334 25.8615 34.645 26.2423 34.645H32.57C32.9508 34.645 33.2623 34.3334 33.2623 33.9527V28.6842C33.2623 28.3034 32.9508 27.9919 32.57 27.9919ZM13.6008 12.1935H11.7975V3.55009L16.6437 7.69392V17.4619H14.2931V12.8858C14.2931 12.4981 13.9885 12.1935 13.6008 12.1935ZM19.9216 17.4619H18.0283V8.87786L22.8744 13.0217V22.7234H20.6139V18.1542C20.6139 17.7665 20.3092 17.4619 19.9216 17.4619ZM26.2423 22.7234H24.259V14.2056L29.1052 18.3494V27.9919H26.9346V23.4157C26.9346 23.035 26.63 22.7234 26.2423 22.7234Z" fill="black"/>
</svg>
