<svg width="16" height="20" viewBox="0 0 16 20" fill="none" xmlns="http://www.w3.org/2000/svg">
<path d="M8 4.37649C7.32189 4.37649 6.65901 4.569 6.09519 4.92967C5.53136 5.29034 5.09191 5.80297 4.83241 6.40275C4.57291 7.00252 4.50502 7.6625 4.63731 8.29921C4.7696 8.93593 5.09614 9.52079 5.57563 9.97984C6.05513 10.4389 6.66604 10.7515 7.33112 10.8782C7.9962 11.0048 8.68557 10.9398 9.31206 10.6914C9.93855 10.4429 10.474 10.0222 10.8508 9.48244C11.2275 8.94266 11.4286 8.30805 11.4286 7.65885C11.4276 6.78861 11.066 5.95429 10.4233 5.33894C9.78049 4.72358 8.909 4.37745 8 4.37649ZM8 10.2118C7.47258 10.2118 6.95701 10.0621 6.51848 9.78156C6.07995 9.50103 5.73815 9.10232 5.53632 8.63583C5.33449 8.16934 5.28168 7.65602 5.38457 7.1608C5.48747 6.66557 5.74144 6.21068 6.11438 5.85365C6.48732 5.49661 6.96248 5.25346 7.47976 5.15496C7.99704 5.05645 8.53322 5.10701 9.02049 5.30023C9.50776 5.49346 9.92423 5.82068 10.2173 6.24051C10.5103 6.66034 10.6667 7.15393 10.6667 7.65885C10.6659 8.33571 10.3847 8.98463 9.88476 9.46324C9.38483 9.94185 8.707 10.2111 8 10.2118ZM8 0C5.879 0.00229257 3.84556 0.809942 2.34579 2.24576C0.846018 3.68158 0.00239469 5.6283 0 7.65885C0 10.4323 1.34952 13.3841 3.90295 16.1953C5.05887 17.4737 6.35973 18.6251 7.78152 19.6283C7.84556 19.6712 7.92183 19.6942 8 19.6942C8.07817 19.6942 8.15444 19.6712 8.21848 19.6283C9.64024 18.6251 10.9411 17.4737 12.097 16.1953C14.6503 13.3841 16 10.4323 16 7.65885C15.9976 5.6283 15.154 3.68158 13.6542 2.24576C12.1544 0.809942 10.121 0.00229257 8 0ZM11.5336 15.7038C10.4696 16.872 9.2858 17.935 8 18.8768C6.71417 17.935 5.53033 16.872 4.46629 15.7038C2.77638 13.8401 0.761905 10.9316 0.761905 7.65885C0.761905 5.82105 1.52449 4.05852 2.88189 2.759C4.2393 1.45948 6.08034 0.729415 8 0.729415C9.91966 0.729415 11.7607 1.45948 13.1181 2.759C14.4755 4.05852 15.2381 5.82105 15.2381 7.65885C15.2381 10.9317 13.2235 13.8403 11.5336 15.7038Z" fill="white"/>
</svg>
