<svg width="20" height="20" viewBox="0 0 20 20" fill="none" xmlns="http://www.w3.org/2000/svg">
<path d="M15.4054 19.6889C15.2186 19.6884 15.0324 19.6679 14.8499 19.6278C11.3758 18.9092 8.17521 17.2242 5.61654 14.7667C3.11247 12.3039 1.37576 9.16817 0.616539 5.73895C0.527018 5.31156 0.54899 4.86833 0.680342 4.4519C0.811694 4.03547 1.048 3.65984 1.36654 3.36117L3.58876 1.22228C3.70227 1.11494 3.83713 1.03274 3.98455 0.981049C4.13197 0.929356 4.28863 0.909331 4.44432 0.922281C4.60574 0.939122 4.76152 0.991122 4.90069 1.07462C5.03986 1.15813 5.15905 1.27111 5.24987 1.40561L8.02765 5.51117C8.13182 5.67047 8.1821 5.859 8.1711 6.04902C8.1601 6.23904 8.0884 6.42051 7.96654 6.56673L6.5721 8.23339C7.12746 9.46253 7.91395 10.5734 8.88876 11.5056C9.85726 12.4716 11.002 13.2429 12.261 13.7778L13.9888 12.4056C14.1339 12.2909 14.3105 12.2231 14.495 12.2112C14.6796 12.1993 14.8634 12.2439 15.0221 12.3389L19.2165 15.0501C19.3605 15.136 19.4831 15.2534 19.5752 15.3935C19.6674 15.5335 19.7266 15.6926 19.7485 15.8588C19.7704 16.025 19.7544 16.194 19.7018 16.3532C19.6491 16.5124 19.5611 16.6575 19.4443 16.7778L17.2777 18.9223C17.0315 19.1672 16.7394 19.361 16.4181 19.4926C16.0968 19.6242 15.7526 19.6909 15.4054 19.6889ZM4.35543 2.02228L2.13321 4.16117C1.95401 4.32814 1.82137 4.53888 1.74831 4.77266C1.67525 5.00644 1.6643 5.25521 1.71654 5.4945C2.4225 8.71236 4.04527 11.6569 6.38876 13.9723C8.79665 16.2843 11.8085 17.8692 15.0777 18.5445C15.3251 18.5962 15.5815 18.5858 15.8239 18.514C16.0663 18.4423 16.2871 18.3115 16.4665 18.1334L18.6332 15.9889L14.5832 13.3723L12.7277 14.8501C12.6566 14.9063 12.5729 14.9443 12.4838 14.9607C12.3947 14.9772 12.303 14.9716 12.2165 14.9445C10.6758 14.3768 9.27957 13.4757 8.12765 12.3056C6.93618 11.193 6.01133 9.82562 5.4221 8.30561C5.39717 8.21359 5.39634 8.11671 5.41969 8.02428C5.44304 7.93184 5.48979 7.84698 5.55543 7.77784L7.05543 5.98339L4.35543 2.02228Z" fill="white"/>
</svg>
