<svg width="24" height="24" viewBox="0 0 24 24" fill="none" xmlns="http://www.w3.org/2000/svg">
<path d="M21.3725 12C21.243 12 21.1381 11.8951 21.1381 11.7656C21.1381 6.69961 17.0388 2.57812 12 2.57812C11.8706 2.57812 11.7656 2.47317 11.7656 2.34375C11.7656 2.21433 11.8706 2.10938 12 2.10938C17.2972 2.10938 21.6069 6.44114 21.6069 11.7656C21.6069 11.8951 21.502 12 21.3725 12Z" fill="white"/>
<path d="M12 21.4219C6.70269 21.4219 2.3931 17.0901 2.3931 11.7656C2.3931 11.6362 2.498 11.5312 2.62747 11.5312C2.75689 11.5312 2.86185 11.6362 2.86185 11.7656C2.86185 16.8316 6.96121 20.9531 12 20.9531C12.1295 20.9531 12.2344 21.058 12.2344 21.1875C12.2344 21.317 12.1295 21.4219 12 21.4219Z" fill="white"/>
<path d="M12 21.4219C11.8706 21.4219 11.7656 21.317 11.7656 21.1875C11.7656 21.058 11.8706 20.9531 12 20.9531C17.0388 20.9531 21.1381 16.8316 21.1381 11.7656C21.1381 11.6362 21.243 11.5312 21.3725 11.5312C21.502 11.5312 21.6069 11.6362 21.6069 11.7656C21.6069 17.0901 17.2972 21.4219 12 21.4219Z" fill="white"/>
<path d="M2.62747 12C2.498 12 2.3931 11.8951 2.3931 11.7656C2.3931 6.44114 6.70269 2.10938 12 2.10938C12.1295 2.10938 12.2344 2.21433 12.2344 2.34375C12.2344 2.47317 12.1295 2.57812 12 2.57812C6.96121 2.57812 2.86185 6.69961 2.86185 11.7656C2.86185 11.8951 2.75685 12 2.62747 12Z" fill="white"/>
<path d="M21.3725 12C21.243 12 21.1381 11.8951 21.1381 11.7656C21.1381 6.69961 17.0388 2.57812 12 2.57812C11.8706 2.57812 11.7656 2.47317 11.7656 2.34375C11.7656 2.21433 11.8706 2.10938 12 2.10938C17.2972 2.10938 21.6069 6.44114 21.6069 11.7656C21.6069 11.8951 21.502 12 21.3725 12Z" fill="white"/>
<path d="M12 21.4219C6.70269 21.4219 2.3931 17.0901 2.3931 11.7656C2.3931 11.6362 2.498 11.5312 2.62747 11.5312C2.75689 11.5312 2.86185 11.6362 2.86185 11.7656C2.86185 16.8316 6.96121 20.9531 12 20.9531C12.1295 20.9531 12.2344 21.058 12.2344 21.1875C12.2344 21.317 12.1295 21.4219 12 21.4219Z" fill="white"/>
<path d="M12 21.4219C11.8706 21.4219 11.7656 21.317 11.7656 21.1875C11.7656 21.058 11.8706 20.9531 12 20.9531C17.0388 20.9531 21.1381 16.8316 21.1381 11.7656C21.1381 11.6362 21.243 11.5312 21.3725 11.5312C21.502 11.5312 21.6069 11.6362 21.6069 11.7656C21.6069 17.0901 17.2972 21.4219 12 21.4219Z" fill="white"/>
<path d="M2.62747 12C2.498 12 2.3931 11.8951 2.3931 11.7656C2.3931 6.44114 6.70269 2.10938 12 2.10938C12.1295 2.10938 12.2344 2.21433 12.2344 2.34375C12.2344 2.47317 12.1295 2.57812 12 2.57812C6.96121 2.57812 2.86185 6.69961 2.86185 11.7656C2.86185 11.8951 2.75685 12 2.62747 12Z" fill="white"/>
<path d="M18.8842 12.0001C18.7547 12.0001 18.6498 11.8952 18.6498 11.7657C18.6498 8.07898 15.6667 5.07959 12 5.07959C11.8705 5.07959 11.7656 4.97464 11.7656 4.84521C11.7656 4.71579 11.8705 4.61084 12 4.61084C15.9252 4.61084 19.1186 7.82051 19.1186 11.7657C19.1186 11.8952 19.0137 12.0001 18.8842 12.0001Z" fill="white"/>
<path d="M12 18.9205C8.07475 18.9205 4.88134 15.7108 4.88134 11.7656C4.88134 11.6362 4.98629 11.5312 5.11572 11.5312C5.24518 11.5312 5.35009 11.6362 5.35009 11.7656C5.35009 15.4523 8.33326 18.4517 12 18.4517C12.1294 18.4517 12.2343 18.5566 12.2343 18.6861C12.2343 18.8156 12.1294 18.9205 12 18.9205Z" fill="white"/>
<path d="M12 18.9205C11.8705 18.9205 11.7656 18.8156 11.7656 18.6861C11.7656 18.5566 11.8705 18.4517 12 18.4517C15.6668 18.4517 18.6498 15.4524 18.6498 11.7656C18.6498 11.6362 18.7547 11.5312 18.8842 11.5312C19.0137 11.5312 19.1186 11.6362 19.1186 11.7656C19.1186 15.7108 15.9252 18.9205 12 18.9205Z" fill="white"/>
<path d="M5.11572 12.0001C4.98629 12.0001 4.88134 11.8952 4.88134 11.7657C4.88134 7.82047 8.07475 4.61084 12 4.61084C12.1294 4.61084 12.2343 4.71579 12.2343 4.84521C12.2343 4.97464 12.1294 5.07959 12 5.07959C8.33322 5.07959 5.35009 8.07898 5.35009 11.7657C5.35009 11.8952 5.24514 12.0001 5.11572 12.0001Z" fill="white"/>
<path d="M18.8842 12.0001C18.7547 12.0001 18.6498 11.8952 18.6498 11.7657C18.6498 8.07898 15.6667 5.07959 12 5.07959C11.8705 5.07959 11.7656 4.97464 11.7656 4.84521C11.7656 4.71579 11.8705 4.61084 12 4.61084C15.9252 4.61084 19.1186 7.82051 19.1186 11.7657C19.1186 11.8952 19.0137 12.0001 18.8842 12.0001Z" fill="white"/>
<path d="M12 18.9205C8.07475 18.9205 4.88134 15.7108 4.88134 11.7656C4.88134 11.6362 4.98629 11.5312 5.11572 11.5312C5.24518 11.5312 5.35009 11.6362 5.35009 11.7656C5.35009 15.4523 8.33326 18.4517 12 18.4517C12.1294 18.4517 12.2343 18.5566 12.2343 18.6861C12.2343 18.8156 12.1294 18.9205 12 18.9205Z" fill="white"/>
<path d="M12 18.9205C11.8705 18.9205 11.7656 18.8156 11.7656 18.6861C11.7656 18.5566 11.8705 18.4517 12 18.4517C15.6668 18.4517 18.6498 15.4524 18.6498 11.7656C18.6498 11.6362 18.7547 11.5312 18.8842 11.5312C19.0137 11.5312 19.1186 11.6362 19.1186 11.7656C19.1186 15.7108 15.9252 18.9205 12 18.9205Z" fill="white"/>
<path d="M5.11572 12.0001C4.98629 12.0001 4.88134 11.8952 4.88134 11.7657C4.88134 7.82047 8.07475 4.61084 12 4.61084C12.1294 4.61084 12.2343 4.71579 12.2343 4.84521C12.2343 4.97464 12.1294 5.07959 12 5.07959C8.33322 5.07959 5.35009 8.07898 5.35009 11.7657C5.35009 11.8952 5.24514 12.0001 5.11572 12.0001Z" fill="white"/>
<path d="M12.1659 20.0876C12.0365 20.0876 11.9315 19.9827 11.9315 19.8532V18.6748C11.9315 18.5453 12.0365 18.4404 12.1659 18.4404C12.2953 18.4404 12.4003 18.5453 12.4003 18.6748V19.8532C12.4003 19.9827 12.2953 20.0876 12.1659 20.0876Z" fill="white"/>
<path d="M12 5.09088C11.8706 5.09088 11.7656 4.98593 11.7656 4.85651V3.59473C11.7656 3.4653 11.8706 3.36035 12 3.36035C12.1295 3.36035 12.2344 3.4653 12.2344 3.59473V4.85651C12.2344 4.98593 12.1295 5.09088 12 5.09088Z" fill="white"/>
<path d="M5.12682 12H3.87165C3.74218 12 3.63728 11.8951 3.63728 11.7656C3.63728 11.6362 3.74218 11.5312 3.87165 11.5312H5.12682C5.25624 11.5312 5.3612 11.6362 5.3612 11.7656C5.3612 11.8951 5.25624 12 5.12682 12Z" fill="white"/>
<path d="M20.0455 12H18.8732C18.7437 12 18.6388 11.8951 18.6388 11.7656C18.6388 11.6362 18.7437 11.5312 18.8732 11.5312H20.0455C20.1749 11.5312 20.2798 11.6362 20.2798 11.7656C20.2798 11.8951 20.1749 12 20.0455 12Z" fill="white"/>
<path d="M11.7511 12.5834C11.7232 12.5834 11.6953 12.5785 11.6685 12.5684L8.35077 11.3177C8.22964 11.2721 8.16843 11.1369 8.21413 11.0157C8.25978 10.8947 8.39488 10.8334 8.5161 10.8791L11.7275 12.0897L15.7773 9.64704C15.888 9.5801 16.0322 9.61582 16.099 9.72668C16.1659 9.83754 16.1302 9.98159 16.0193 10.0484L11.8722 12.5498C11.8352 12.5721 11.7933 12.5834 11.7511 12.5834Z" fill="white"/>
</svg>
